HIERARCHY
ROOT Hips
{
    OFFSET 0.000000 0.000000 0.000000
    CHANNELS 6 Xposition Yposition Zposition Zrotation Xrotation Yrotation
    JOINT Spine
    {
        OFFSET -0.000000 6.993131 0.000000
        CHANNELS 3 Zrotation Xrotation Yrotation
        JOINT Spine1
        {
            OFFSET -0.000000 20.649729 0.000000
            CHANNELS 3 Zrotation Xrotation Yrotation
            JOINT Neck
            {
                OFFSET -0.000000 20.564924 1.869539
                CHANNELS 3 Zrotation Xrotation Yrotation
                JOINT Head
                {
                    OFFSET -0.000000 11.939490 -1.705642
                    CHANNELS 3 Zrotation Xrotation Yrotation
                    End Site
                    {
                        OFFSET -0.000000 21.320518 0.000000
                    }
                }
            }
            JOINT LeftShoulder
            {
                OFFSET 3.446977 19.850397 -0.038759
                CHANNELS 3 Zrotation Xrotation Yrotation
                JOINT LeftArm
                {
                    OFFSET 7.083611 0.000000 0.000000
                    CHANNELS 3 Zrotation Xrotation Yrotation
                    JOINT LeftForeArm
                    {
                        OFFSET 32.044487 0.000000 0.000000
                        CHANNELS 3 Zrotation Xrotation Yrotation
                        JOINT LeftHand
                        {
                            OFFSET 22.068741 0.000000 0.000000
                            CHANNELS 3 Zrotation Xrotation Yrotation
                            End Site
                            {
                                OFFSET 12.792312 0.000000 0.000000
                            }
                        }
                    }
                }
            }
            JOINT RightShoulder
            {
                OFFSET -3.365844 19.850397 -0.038759
                CHANNELS 3 Zrotation Xrotation Yrotation
                JOINT RightArm
                {
                    OFFSET -7.083611 0.000000 0.000000
                    CHANNELS 3 Zrotation Xrotation Yrotation
                    JOINT RightForeArm
                    {
                        OFFSET -32.044487 0.000000 0.000000
                        CHANNELS 3 Zrotation Xrotation Yrotation
                        JOINT RightHand
                        {
                            OFFSET -22.068741 0.000000 0.000000
                            CHANNELS 3 Zrotation Xrotation Yrotation
                            End Site
                            {
                                OFFSET -12.792312 0.000000 0.000000
                            }
                        }
                    }
                }
            }
        }
    }
    JOINT LeftUpLeg
    {
        OFFSET 8.528208 0.000000 0.000000
        CHANNELS 3 Zrotation Xrotation Yrotation
        JOINT LeftLeg
        {
            OFFSET -0.000000 -31.874865 0.000000
            CHANNELS 3 Zrotation Xrotation Yrotation
            JOINT LeftFoot
            {
                OFFSET -0.000000 -38.221939 0.000000
                CHANNELS 3 Zrotation Xrotation Yrotation
                JOINT LeftToeBase
                {
                    OFFSET -0.000000 -5.543335 12.792312
                    CHANNELS 3 Zrotation Xrotation Yrotation
                    End Site
                    {
                        OFFSET -0.000000 0.000000 3.411283
                    }
                }
            }
        }
    }
    JOINT RightUpLeg
    {
        OFFSET -8.528208 0.000000 0.000000
        CHANNELS 3 Zrotation Xrotation Yrotation
        JOINT RightLeg
        {
            OFFSET -0.000000 -31.874865 0.000000
            CHANNELS 3 Zrotation Xrotation Yrotation
            JOINT RightFoot
            {
                OFFSET -0.000000 -38.221939 0.000000
                CHANNELS 3 Zrotation Xrotation Yrotation
                JOINT RightToeBase
                {
                    OFFSET -0.000000 -5.543335 12.792312
                    CHANNELS 3 Zrotation Xrotation Yrotation
                    End Site
                    {
                        OFFSET -0.000000 0.000000 3.411283
                    }
                }
            }
        }
    }
}
MOTION
Frames:    14
Frame Time:    0.008333
32.074268    27.702171    27.456671    23.080479    -1.129331    91.886009    1.108133    36.791248    0.965517    0.255013    18.648260    1.292205    5.523073    7.453007    9.480017    -7.583567    -33.469189    6.181875    3.171447    0.399022    -16.430462    -28.674622    49.378948    -40.032646    6.049657    -11.340075    -27.627460    5.777813    -10.005683    -2.599413    5.952384    3.526584    9.657056    14.091865    45.658966    38.729446    -8.741935    -1.546295    29.844109    1.241831    0.764214    -2.107410    7.391270    -67.649361    -6.338108    177.107346    35.757008    -169.849411    -41.958290    -42.029285    -58.446411    0.000000    0.000000    0.000000    -29.154512    -61.386600    -9.069972    -178.031403    34.064209    -169.213608    19.440844    -52.499268    27.393694    0.000000    0.000000    0.000000    
32.074123    27.711401    27.467419    23.025436    -1.144040    91.894592    1.161772    36.790272    0.932282    0.240557    18.676392    1.279105    5.435222    7.425160    9.444117    -7.330901    -33.424706    6.260560    3.194111    0.423577    -16.414995    -28.438303    49.511047    -40.151089    6.154673    -11.363924    -27.693419    6.057148    -10.002840    -2.525908    5.836041    3.414395    9.668990    14.246820    45.730785    38.750496    -8.706223    -1.617274    29.830620    1.140608    0.684232    -2.127041    7.345247    -67.674057    -6.322593    177.041367    35.705830    -169.748550    -41.896847    -42.004414    -58.284679    0.000000    0.000000    0.000000    -29.094826    -61.447395    -8.996408    -178.080795    34.070789    -169.104736    19.267241    -52.520351    27.223337    0.000000    0.000000    0.000000    
32.073200    27.716011    27.475554    22.948698    -1.155148    91.904411    1.191681    36.836956    0.965657    0.248065    18.568825    1.321960    5.417503    7.528084    9.396408    -7.229329    -33.543297    6.253137    3.218910    0.452953    -16.507402    -28.671747    49.323898    -40.034203    6.213522    -11.044690    -27.599339    6.466396    -9.667317    -2.260805    5.855315    3.452606    9.529225    14.183085    45.749893    38.844646    -8.685078    -1.746062    29.804401    1.704703    0.541629    -1.827133    7.299207    -67.744278    -6.330982    177.015961    35.700985    -169.667908    -41.853386    -42.042023    -58.232891    0.000000    0.000000    0.000000    -29.080776    -61.517273    -8.989975    -178.127823    34.065216    -168.985321    19.002378    -52.581619    26.971245    0.000000    0.000000    0.000000    
32.090885    27.732437    27.480000    22.950064    -1.164300    91.957916    1.328696    36.801548    0.814144    0.182042    18.717506    1.226198    5.365187    7.484017    9.474039    -7.101258    -33.491348    6.393777    3.202658    0.445833    -16.406502    -28.651474    49.256683    -40.019447    6.235906    -10.835832    -27.477070    6.903080    -9.481911    -2.501190    5.814922    3.439381    9.719910    14.225806    45.705502    38.852127    -8.637468    -1.728792    29.817019    1.587885    0.548256    -1.881799    7.115992    -67.735748    -6.501399    177.011337    35.686771    -169.635193    -41.749844    -42.072166    -58.143909    0.000000    0.000000    0.000000    -29.067461    -61.470047    -9.028590    -178.159317    34.049850    -168.835632    18.583979    -52.633343    26.487436    0.000000    0.000000    0.000000    
32.096230    27.741713    27.484724    22.915268    -1.164545    91.953690    1.343871    36.805748    0.806429    0.186702    18.746864    1.222742    5.439588    7.491968    9.518125    -7.192688    -33.435432    6.398604    3.199243    0.432523    -16.410231    -28.594679    49.267979    -40.089848    6.382357    -10.550781    -27.298574    7.268841    -9.185822    -2.617607    5.784361    3.494637    9.684884    14.138048    45.652973    38.996075    -8.642989    -1.683873    29.822004    1.669552    0.594973    -1.795926    7.059609    -67.774292    -6.553092    177.012695    35.690098    -169.557159    -41.684727    -42.045029    -58.133801    0.000000    0.000000    0.000000    -28.984303    -61.500656    -9.043263    -178.188202    34.014839    -168.796555    18.210600    -52.732567    26.050465    0.000000    0.000000    0.000000    
32.097523    27.743799    27.490467    22.843687    -1.161503    91.941734    1.336327    36.774403    0.809207    0.196341    18.765821    1.221043    5.557010    7.150458    9.651815    -7.245324    -32.793991    6.528753    3.236296    0.426906    -16.420643    -28.583143    49.268135    -40.171650    6.798361    -10.290976    -26.975616    6.494519    -8.838229    -2.812264    5.778944    3.415192    9.708408    14.119974    45.753658    39.021435    -8.671074    -1.668145    29.820465    1.652097    0.620885    -1.627273    7.030756    -67.901428    -6.415712    176.900391    35.669487    -169.261642    -41.693653    -41.818935    -58.172050    0.000000    0.000000    0.000000    -28.932278    -61.567646    -9.123182    -178.191315    33.951603    -168.770279    17.734144    -52.867714    25.515240    0.000000    0.000000    0.000000    
32.095345    27.748119    27.496279    22.769302    -1.150716    91.930153    1.270415    36.730778    0.848133    0.269238    18.809322    1.225340    5.636922    7.298666    9.644167    -7.428884    -32.989437    6.432125    3.249538    0.403056    -16.434393    -28.536638    49.257851    -40.337036    6.665216    -10.084029    -26.768942    7.430346    -8.704438    -2.920751    5.732543    3.391542    9.674582    14.034007    45.786438    39.139893    -8.677679    -1.598608    29.862942    1.575389    0.696515    -1.639269    6.956565    -68.003281    -6.457371    176.917007    35.726929    -169.120422    -41.893925    -41.341396    -58.333458    0.000000    0.000000    0.000000    -28.893517    -61.631111    -9.202687    -178.195007    33.862885    -168.695816    17.229548    -52.986198    24.894167    0.000000    0.000000    0.000000    
32.101437    27.752607    27.501059    22.719625    -1.130085    91.913208    1.227627    36.695610    0.877583    0.278770    18.863882    1.238442    5.649017    7.328650    9.635557    -7.356150    -33.038864    6.451180    3.283198    0.381221    -16.447979    -28.507586    49.248817    -40.424839    6.666494    -9.949883    -26.633003    7.445683    -8.582006    -2.981046    5.756359    3.388024    9.647273    13.902511    45.815712    39.262074    -8.728361    -1.433221    29.919580    0.815937    0.886775    -2.235768    6.862051    -68.074348    -6.516579    176.891937    35.743053    -168.900864    -41.978168    -41.183132    -58.525372    0.000000    0.000000    0.000000    -28.838604    -61.676292    -9.293302    -178.215240    33.746082    -168.642990    16.572363    -53.154274    24.046431    0.000000    0.000000    0.000000    
32.087471    27.747234    27.505219    22.605656    -1.087390    91.841370    1.102165    36.645172    0.954695    0.300710    18.861820    1.269787    5.661112    7.296437    9.628433    -7.267880    -32.980915    6.481928    3.361081    0.390407    -16.459721    -28.491259    49.232483    -40.556561    6.705508    -9.825962    -26.448490    7.564424    -8.469147    -3.078053    5.722104    3.410323    9.619612    13.803535    45.813236    39.398033    -8.738316    -1.355673    29.962524    0.642702    0.974052    -2.207068    6.871881    -68.229095    -6.370605    176.821777    35.776031    -168.541962    -42.116928    -40.930630    -58.762875    0.000000    0.000000    0.000000    -28.771740    -61.839573    -9.347092    -178.228561    33.663273    -168.831345    16.205877    -53.294720    23.688101    0.000000    0.000000    0.000000    
32.089794    27.751610    27.511765    22.549328    -1.054379    91.808510    1.003570    36.608017    1.016531    0.344502    18.918461    1.291088    5.667945    7.295668    9.616978    -7.190828    -33.008472    6.500113    3.387214    0.357704    -16.490732    -28.446342    49.272530    -40.639011    6.768013    -9.771960    -26.271795    7.470010    -8.410892    -3.110974    5.717709    3.414149    9.589001    13.676463    45.833385    39.516399    -8.722486    -1.337219    29.989515    0.459845    0.994484    -2.097447    6.826773    -68.291733    -6.535896    176.910217    35.822979    -168.518555    -42.208580    -40.752110    -58.946274    0.000000    0.000000    0.000000    -28.701471    -61.909256    -9.371451    -178.464172    33.629803    -168.638733    14.941328    -53.641735    22.490973    0.000000    0.000000    0.000000    
32.090889    27.756845    27.514441    22.500422    -1.010518    91.773720    0.916846    36.605080    1.062986    0.356450    18.928375    1.306811    5.694890    7.356677    9.643320    -7.141736    -33.099876    6.543489    3.520273    0.198732    -16.529701    -28.765490    49.337673    -40.519333    6.770939    -9.699228    -26.155640    7.506628    -8.344221    -3.093511    5.741076    3.426430    9.594522    13.569727    45.859680    39.581116    -8.678853    -1.366580    30.010504    0.484159    0.956913    -1.545498    6.757599    -68.311783    -6.821559    177.081757    35.870598    -168.654892    -42.386215    -40.560432    -59.152565    0.000000    0.000000    0.000000    -28.625694    -61.993301    -9.357694    -178.412003    33.555565    -168.726532    14.898348    -53.581856    22.378439    0.000000    0.000000    0.000000    
32.092747    27.762794    27.523882    22.462250    -0.975550    91.745987    0.844682    36.611050    1.098399    0.363938    18.940151    1.317124    5.730053    7.408027    9.645928    -7.120442    -33.175400    6.550314    3.603721    0.079886    -16.558762    -28.723034    49.607895    -40.552773    6.940115    -9.750706    -26.171017    7.480331    -8.322908    -2.594515    5.759154    3.425323    9.621246    13.555456    45.848259    39.584667    -8.668443    -1.387383    30.036623    0.792943    0.932909    -1.308457    6.671679    -68.355659    -6.875566    177.061249    35.901016    -168.432846    -42.504559    -40.388416    -59.353851    0.000000    0.000000    0.000000    -28.538553    -62.070789    -9.263656    -178.413025    33.519917    -168.655777    14.720474    -53.575703    22.125872    0.000000    0.000000    0.000000    
32.093941    27.767170    27.534479    22.425222    -0.955054    91.721336    0.780557    36.600246    1.134604    0.389241    18.986078    1.327680    5.766506    7.428419    9.640263    -7.119725    -33.222805    6.539865    3.423254    0.356962    -16.592552    -28.162840    49.475235    -40.814926    6.804484    -9.873209    -26.296528    7.664983    -8.471574    -2.564319    5.741510    3.417276    9.628456    13.523470    45.847866    39.625580    -8.675804    -1.341061    30.089617    0.452680    0.988482    -1.542543    6.602487    -68.397408    -6.907939    177.042984    35.924789    -168.245056    -42.621075    -40.217155    -59.474319    0.000000    0.000000    0.000000    -28.442059    -62.157700    -9.120185    -178.407181    33.513577    -168.591217    14.808011    -53.539886    22.174875    0.000000    0.000000    0.000000    
32.094704    27.774170    27.540918    22.396549    -0.934548    91.719193    0.782691    36.621254    1.131327    0.371054    19.005865    1.328265    5.704326    7.470629    9.628164    -6.976157    -33.339489    6.588247    3.410311    0.345268    -16.605890    -28.101635    49.530563    -40.830978    6.849157    -9.905451    -26.296259    7.904285    -8.487405    -2.395925    5.752103    3.383371    9.630180    13.508632    45.873653    39.644524    -8.670859    -1.351915    30.118469    0.323844    0.980265    -1.593268    6.463603    -68.412704    -7.031744    177.034866    35.947296    -168.078537    -42.720501    -40.097347    -59.662598    0.000000    0.000000    0.000000    -28.371914    -62.229717    -8.994802    -178.224457    33.505466    -168.461288    15.067888    -53.376781    22.345026    0.000000    0.000000    0.000000    
